<svg width="35" height="50" viewBox="0 0 35 50" fill="none" xmlns="http://www.w3.org/2000/svg">
<path d="M5.02799 38.7586L34.9999 16.9177V11.3143L1.18408 35.9569L5.02799 38.7586Z" fill="#332B2D"/>
<path d="M31.4038 20.7964V26.4013L9.73612 42.1907L5.89137 39.3891L31.4038 20.7964ZM34.9999 10.0557V4.30579L1.08081 29.0206V34.7742L34.9999 10.0557Z" fill="#D60007"/>
<path d="M10.5995 42.8197L14.5451 45.6943L28.0101 35.8825V30.1318L10.5995 42.8197ZM13.6641 10.9489V14.6132L13.4869 14.7428V10.8201L13.6641 10.9422V10.9489ZM2.86803 11.0122L2.68998 10.8871V16.9601L2.86803 17.0889V11.0122ZM3.93629 11.7037L5.62268 10.4748L5.75537 10.5708L4.06899 11.7997L3.93629 11.7037ZM10.5139 10.675L10.6927 10.8015V16.71L10.5139 16.8403V10.675ZM1.02795 13.234L0 13.9843L0.130174 13.6962L1.44199 12.739L1.02795 13.234ZM7.47619 11.0107V14.5604L7.29982 14.6899V10.8812L7.47619 11.0107ZM16.8882 10.7755V14.017L13.6632 16.3676V18.4198L11.7585 19.8072V19.6137L13.4869 18.3565V16.3036L16.7101 13.953V10.6497L16.8882 10.7755ZM11.766 17.7521L8.75693 19.9471V19.7536L12.1986 17.243L11.766 17.7521ZM8.52346 15.767L7.47619 16.5306V18.5426L5.54205 19.9464V19.7529L7.29982 18.4778V16.4659L8.52346 15.5734V15.767ZM11.7215 18.0937L13.3466 16.1801V18.2329L11.7215 19.4157V18.0937ZM5.5051 18.128L7.15873 16.3423V18.3557L5.5051 19.5549V18.128ZM14.944 9.39697L11.7215 11.7468V16.183L10.3736 17.1678V10.576L8.71998 9.39697L5.50594 11.7394V16.221L3.43743 17.7268L2.55057 17.0829V11.7066L0.928855 13.6441V18.2329L2.75045 19.5556L8.71998 15.2065V19.5556L16.5716 13.8295V10.5499L14.944 9.39697ZM13.3475 10.5663L14.9129 11.6456V13.8659L13.3475 15.0048V10.5663ZM7.15873 10.576H7.19064L8.71914 11.697V13.8801L7.15873 15.0159V10.576ZM2.55057 10.5663V11.7066L0.928855 12.8886L0.154529 13.4521L0.928855 11.7364L4.13953 9.39772L5.46815 10.3631L3.8901 11.5116L2.55057 10.5663ZM5.76545 17.5891L2.91338 19.6747L3.04607 19.7707L5.191 18.2076L5.76545 17.5891Z" fill="#332B2D"/>
</svg>
